<svg xmlns="http://www.w3.org/2000/svg" width="256" height="153" fill="none"><path fill="#00634B" fill-rule="evenodd" d="M184.205 145.059c22.81.55 46.12-.55 67.93 7.25 1.3.46 2.73-.21 3.2-1.51a2.51 2.51 0 0 0-1.51-3.2c-22.32-7.98-46.16-6.98-69.5-7.54a2.495 2.495 0 0 0-2.56 2.44c-.04 1.38 1.06 2.52 2.44 2.56Zm-2.05-33.117c7.11-6.542 14.87-11.443 24.25-13.872a2.507 2.507 0 0 0 1.8-3.047 2.508 2.508 0 0 0-3.05-1.793c-10.2 2.64-18.65 7.922-26.38 15.031a2.493 2.493 0 0 0-.15 3.533 2.499 2.499 0 0 0 3.53.148Zm-19.78-71.423c3.26-11.175 9.68-19.917 19.52-26.23a2.497 2.497 0 0 0 .75-3.454 2.496 2.496 0 0 0-3.45-.754c-10.89 6.99-18.01 16.664-21.62 29.037a2.502 2.502 0 0 0 1.7 3.1 2.495 2.495 0 0 0 3.1-1.7Z" clip-rule="evenodd"/><path fill="#00634B" fill-rule="evenodd" d="M50.025 25.353a47.411 47.411 0 0 0-5.16 7.362c-.66 1.166-1.82 3.644-2 5.769-.2 2.264.57 4.174 2.55 5.18 2.63 1.334 4.73 1.195 6.35.388 1.56-.775 2.78-2.298 3.55-4.34 1.47-3.903 1.25-9.868.48-13.272a48.355 48.355 0 0 1 6.77-5.795c18.1-12.825 44.65-8.096 65.08 11.08 7.15 6.714 10.59 20.814 12.38 36.027 2.79 23.687 1.2 50.143.98 57.894-.05 1.914.13 3.05.23 3.277.47 1.116 1.3 1.406 1.88 1.516.84.15 1.51-.01 2.05-.29.73-.384 1.33-1.06 1.61-2.103.15-.576.19-1.378.17-2.233-.02-.593-.14-1.241-.02-1.666.78-2.722 1.72-5.38 2.64-8.057 3.07-8.999 7.04-17.432 11.45-25.855 14.01-26.764 27.56-55.043 50.53-75.434a2.501 2.501 0 0 0-3.32-3.739c-23.43 20.794-37.35 49.56-51.64 76.854-3.75 7.165-7.19 14.34-10.05 21.845.29-13.276.18-31.653-2.25-47.913-2.16-14.461-6.27-27.241-13.22-33.768-22.38-21.007-51.57-25.564-71.39-11.514a53.876 53.876 0 0 0-6.02 4.952C43.285 2.793 21.085-4.712 1.465 4.244a2.5 2.5 0 0 0-1.24 3.312 2.51 2.51 0 0 0 3.32 1.236c17.68-8.07 37.73-.868 46.48 16.56Zm1.45 6.269a43.278 43.278 0 0 0-2.26 3.556c-.37.658-1.01 1.923-1.28 3.16-.06.29-.07.745-.07.955.69.34 1.23.504 1.67.283.55-.272.83-.912 1.1-1.627.68-1.794.9-4.172.84-6.327Z" clip-rule="evenodd"/></svg>