<svg xmlns="http://www.w3.org/2000/svg" width="230" height="129" fill="none"><g fill="#1F3B24" clip-path="url(#a)"><path d="M198.71 102.098c-7.758-9.333-20.713-22.287-32.739-31.888-11.959-9.674-22.63-16.086-23.293-15.351-.752.803 8.5 8.572 19.135 18.93 10.718 10.312 22.581 23.4 30.136 32.482 5.999 7.1 9.345 11.096 11.526 13.185-1.217-.143-2.451-.313-3.685-.483-3.126-.503-6.162-.983-9.038-1.424-5.783-.957-11.039-1.806-15.455-2.448-8.826-1.304-14.368-1.774-14.544-.964-.177.81 5.072 2.759 13.728 5.145a296.372 296.372 0 0 0 15.327 3.742c2.903.627 5.975 1.251 9.204 1.824 1.615.287 3.285.542 5.04.751 1.08.109 5.938.815 7.383-1.817.197-.311.434-.589.586-.911l.378-.851c.201-.422.29-.782.435-1.173.262-.767.49-1.497.668-2.217.407-1.451.707-2.86 1.001-4.248.562-2.76.984-5.442 1.346-7.982.703-5.085 1.116-9.68 1.351-13.555.447-7.755.11-12.626-.841-12.77-.952-.146-2.375 4.447-4.058 11.941-.808 3.756-1.76 8.195-2.816 13.149-.533 2.452-1.076 5.037-1.702 7.669l-.209.848c-1.683-2.641-4.449-6.358-8.864-11.584Zm-65.053-53.604c.872-.998-1.591-3.988-5.604-6.553-3.98-2.601-12.682-6.46-13.439-5.343-.719 1.059 6.586 6.572 10.463 9.103 3.911 2.494 7.702 3.813 8.58 2.793Zm-28.904-17.299c.553-.874-2.575-3.512-7.094-5.685-4.504-2.237-13.972-5.43-14.404-4.458-.417.908 8.119 5.534 12.531 7.748 4.411 2.124 8.391 3.264 8.967 2.395Zm-29.51-13.381c.319-.707-3.279-2.81-8.116-4.477-4.816-1.752-14.655-4.025-14.871-3.247-.2.714 9.13 4.166 13.861 5.874 4.741 1.666 8.801 2.579 9.126 1.85ZM33.113 6.393c4.981.983 9.092 1.594 9.223 1.065.12-.487-3.837-1.914-8.886-2.915-2.523-.51-6.305-1.086-9.466-1.35-3.156-.285-5.685-.28-5.703-.015.01.25 2.476.701 5.548 1.325 4.585.931 7.68 1.56 9.284 1.89Z"/></g><defs><clipPath id="a"><path fill="#fff" d="M18.852.87 229.77 52.98l-18.645 75.467L.207 76.336z"/></clipPath></defs></svg>