<svg xmlns="http://www.w3.org/2000/svg" width="43" height="43" fill="none"><g fill="#fff" clip-path="url(#a)"><path d="M17.542.46v3.808h-.53c-3.59 0-7.18-.001-10.77.001-1.31 0-2.09.769-2.09 2.062-.003 5.493-.001 10.986-.001 16.479v.445h13.253v3.808H4.18c0 .78-.064 1.523.017 2.25.094.846.792 1.436 1.663 1.547.204.026.415.02.621.02l25.635.001c1.556 0 2.07-.39 2.465-1.89h3.747c-.018 1.432-.48 2.668-1.403 3.718-1.164 1.322-2.639 1.964-4.404 1.96-3.56-.007-7.121-.002-10.681-.002h-.565v3.79h5.633v3.795h-15.14v-3.77h5.634v-3.816h-.526c-3.59 0-7.18.01-10.77-.004-2.827-.01-5.088-1.86-5.645-4.606a6.525 6.525 0 0 1-.114-1.283C.343 21.306.342 13.84.347 6.371.349 2.944 2.822.466 6.235.461 9.841.456 13.445.46 17.05.46h.492Z"/><path d="M19.351 13.74c0-2.465-.005-4.929.001-7.393.008-3.43 2.463-5.883 5.897-5.886 3.664-.004 7.327-.005 10.99 0 3.417.004 5.893 2.48 5.897 5.902.006 4.942.006 9.885 0 14.828-.005 3.395-2.488 5.88-5.867 5.881-3.708.003-7.416.005-11.124 0-2.911-.005-5.209-1.926-5.723-4.787-.067-.377-.069-.769-.07-1.154-.004-2.464 0-4.928 0-7.392Zm18.982.015V6.408c-.002-1.389-.755-2.139-2.148-2.139H25.282c-1.387 0-2.147.756-2.147 2.145-.003 4.898-.003 9.796 0 14.695 0 1.402.744 2.155 2.13 2.155 3.65.003 7.298.003 10.947 0 1.37-.001 2.12-.752 2.12-2.117.002-2.464 0-4.928 0-7.392Z"/><path d="M26.957 19.454v-3.75h7.541v3.75h-7.54Zm7.538-7.617h-7.533v-3.73h7.533v3.73Z"/></g><defs><clipPath id="a"><path fill="#fff" d="M.345.457H42.14v41.796H.345z"/></clipPath></defs></svg>