<svg xmlns="http://www.w3.org/2000/svg" width="359" height="54" fill="none"><path fill="#00634B" fill-rule="evenodd" d="M157.379 1.006C133.573 2.1 87.862 12.169 44.864 25.788l-10.15 3.217C6.183 38.057-9.16 43.766-19.899 49.325c-4.192 2.169-4.552 2.432-4.44 3.242.161 1.183.843 1 8.62-2.31 8.048-3.424 15.262-5.91 35.044-12.08 66.12-20.622 97.002-28.181 131.642-32.225 6.788-.792 17.631-.654 17.631.225 0 1.173-6.801 5.176-22.546 13.27-19.37 9.959-31.162 16.565-32.207 18.043-1.784 2.525.178 4.348 4.425 4.109 2.427-.136 2.978-.24 14.105-2.643 31.945-6.9 52.362-10.402 80.032-13.728 42.137-5.065 68.985-6.933 119.46-8.314 18.137-.496 19.075-.566 22.423-1.652 1.29-.418 2.832-.828 3.425-.91 1.391-.19 1.374-.434-.043-.614-.617-.079-2.035-.453-3.152-.833-2.753-.936-4.578-.985-20.302-.544-52.711 1.477-80.446 3.365-120.636 8.214-21.136 2.55-30.555 3.936-45.946 6.76-10.522 1.93-38.294 7.55-42.185 8.536-2.123.538 7.092-4.536 23.276-12.818 20.473-10.475 24.548-13.32 24.567-17.148.022-4.316-3.699-5.461-15.916-4.9Z" clip-rule="evenodd"/></svg>