<svg width="77" height="44" viewBox="0 0 77 44" fill="none" xmlns="http://www.w3.org/2000/svg">
<g id="2435 Courses">
<path d="M0.613037 23.3753H17.23V19.0833H7.42804L11.256 16.0383C13.431 14.3273 14.968 12.9063 15.809 11.7753C16.679 10.6443 17.114 9.28131 17.114 7.65731C17.114 5.56931 16.389 3.82931 14.91 2.43731C13.431 1.01631 11.488 0.320312 9.05204 0.320312C7.10904 0.320312 5.36904 0.784312 3.83204 1.71231C2.32404 2.61131 1.30904 3.97431 0.758037 5.74331L5.07904 7.57031C5.83304 5.68531 7.13804 4.72831 9.02304 4.72831C10.879 4.72831 12.271 6.06231 12.271 7.68631C12.271 8.52731 12.01 9.28131 11.459 9.97731C10.908 10.6733 9.95104 11.6013 8.53004 12.7613L0.613037 19.2573V23.3753Z" fill="white"/>
<path d="M30.9124 18.8803V23.3753H35.4944V18.8513H38.7134V14.6463H35.4944V0.668311H29.8974L19.7184 14.2693V18.8803H30.9124ZM30.9124 6.17831V14.6463H24.5904L30.9124 6.17831Z" fill="white"/>
<path d="M57.6653 16.8503C57.6653 14.3273 56.6503 12.7033 54.1273 11.6593V11.6303C56.1863 10.5283 57.2303 8.93331 57.2303 6.84531C57.2303 4.90231 56.5053 3.30731 55.0553 2.11831C53.6053 0.929312 51.7203 0.320312 49.4003 0.320312C45.6013 0.320312 42.5853 2.08931 41.3093 5.22131L45.5143 7.22231C46.2973 5.54031 47.5153 4.69931 49.2263 4.69931C51.2853 4.69931 52.5033 5.74331 52.5033 7.16431C52.5033 8.67231 51.3143 9.71631 49.3133 9.71631H47.1673V14.0663H49.5743C51.6623 14.0663 52.9093 15.0233 52.9093 16.7343C52.9093 18.3293 51.5753 19.3733 49.5743 19.3733C47.5153 19.3733 45.8623 18.4163 45.0793 16.7633L40.9613 18.8803C42.3243 22.0413 45.4853 23.7233 49.4583 23.7233C51.8073 23.7233 53.7503 23.0853 55.3163 21.7803C56.8823 20.4753 57.6653 18.8223 57.6653 16.8503Z" fill="white"/>
<path d="M76.8962 15.7773C76.8962 13.4863 76.2002 11.6883 74.8082 10.4413C73.4452 9.16531 71.7052 8.52731 69.6172 8.52731C68.1382 8.52731 66.7752 9.02031 65.5282 10.0353L66.2532 4.93131H75.8812V0.668311H62.5122L60.8592 12.1813L65.2672 13.9793C66.1952 13.0803 67.2392 12.6453 68.3702 12.6453C70.7192 12.6453 72.1692 13.9503 72.1692 15.8933C72.1692 17.9813 70.6612 19.2573 68.5442 19.2573C66.5432 19.2573 65.1222 18.4453 64.2522 16.8213L60.2502 19.1993C61.7872 22.1573 64.5132 23.6363 68.4282 23.6363C70.8642 23.6363 72.8942 22.9403 74.4892 21.5193C76.0842 20.0983 76.8962 18.1843 76.8962 15.7773Z" fill="white"/>
<path d="M16.3503 43.4873C17.5963 43.4873 18.6603 43.1653 19.5143 42.5073C20.3823 41.8493 20.9843 41.0513 21.3063 40.1133L20.2703 39.6233C19.6403 41.3453 18.3383 42.3953 16.3923 42.3953C15.1463 42.3953 14.1243 41.9613 13.3123 41.1073C12.5003 40.2533 12.0943 39.1613 12.0943 37.8593C12.0943 36.5573 12.5143 35.4933 13.3403 34.6533C14.1803 33.8133 15.1883 33.3933 16.3783 33.3933C17.4283 33.3933 18.2683 33.6593 18.8983 34.1913C19.5423 34.7093 19.9903 35.3673 20.2563 36.1373L21.2923 35.6613C20.9983 34.7373 20.4243 33.9533 19.5703 33.2953C18.7163 32.6373 17.6663 32.3013 16.4063 32.3013C14.8803 32.3013 13.5783 32.8333 12.5003 33.8973C11.4223 34.9473 10.8903 36.2913 10.8903 37.9293C10.8903 39.5533 11.4083 40.8833 12.4583 41.9333C13.5083 42.9693 14.8103 43.4873 16.3503 43.4873Z" fill="white"/>
<path d="M26.3871 43.5013C27.4791 43.5013 28.4031 43.1233 29.1451 42.3813C29.8871 41.6393 30.2651 40.7153 30.2651 39.6093C30.2651 38.5313 29.8871 37.6353 29.1451 36.8933C28.4031 36.1513 27.4931 35.7733 26.4151 35.7733C25.3091 35.7733 24.3851 36.1513 23.6431 36.8933C22.9011 37.6353 22.5371 38.5593 22.5371 39.6653C22.5371 40.7293 22.9011 41.6393 23.6431 42.3813C24.3851 43.1233 25.3091 43.5013 26.3871 43.5013ZM26.4151 42.5353C25.6171 42.5353 24.9451 42.2553 24.4271 41.6813C23.9091 41.1073 23.6571 40.4073 23.6571 39.6093C23.6571 38.8113 23.9091 38.1253 24.4271 37.5653C24.9451 37.0053 25.5891 36.7253 26.3871 36.7253C27.1851 36.7253 27.8431 37.0193 28.3611 37.5933C28.8791 38.1673 29.1451 38.8673 29.1451 39.6653C29.1451 40.4633 28.8791 41.1353 28.3611 41.6953C27.8431 42.2553 27.1991 42.5353 26.4151 42.5353Z" fill="white"/>
<path d="M32.1046 35.8993V40.5193C32.1046 42.3113 33.1406 43.5153 34.9326 43.5153C36.0666 43.5153 36.9206 43.0113 37.4946 42.0033V43.3753H38.5586V35.8993H37.4806V40.1693C37.4806 40.8413 37.2706 41.4013 36.8506 41.8493C36.4306 42.2973 35.8986 42.5213 35.2546 42.5213C33.9106 42.5213 33.1826 41.6393 33.1826 40.2533V35.8993H32.1046Z" fill="white"/>
<path d="M41.0343 35.8993V43.3753H42.1263V39.7213C42.1263 38.9513 42.3083 38.3073 42.6863 37.7613C43.0643 37.2153 43.6523 36.9353 44.4643 36.9353C44.5623 36.9353 44.7023 36.9493 44.8843 36.9633V35.8013C44.8283 35.7873 44.7023 35.7873 44.5203 35.7873C43.5683 35.7873 42.6303 36.3053 42.1123 37.3833V35.8993H41.0343Z" fill="white"/>
<path d="M51.2266 41.2473C51.2266 40.7853 51.0446 40.3653 50.6946 40.0153C50.2886 39.5953 49.6306 39.2873 48.7346 39.0913C47.3486 38.7973 46.9846 38.5313 46.9846 37.9153C46.9846 37.5933 47.1386 37.3273 47.4326 37.0893C47.7266 36.8513 48.0906 36.7393 48.4966 36.7393C49.2666 36.7393 49.8546 37.1593 50.2466 37.9993L51.1426 37.5093C50.6386 36.3473 49.7566 35.7733 48.4966 35.7733C47.8246 35.7733 47.2226 35.9833 46.6906 36.4033C46.1586 36.8233 45.8926 37.3553 45.8926 37.9993C45.8926 38.4333 46.0326 38.7973 46.2986 39.1193C46.7046 39.5813 47.2226 39.8193 48.2446 40.0433C49.6026 40.3653 50.1206 40.6873 50.1206 41.3173C50.1206 42.0593 49.3786 42.5353 48.5246 42.5353C47.6426 42.5353 46.9706 42.0453 46.5086 41.0793L45.6126 41.5693C46.1866 42.8573 47.1666 43.5013 48.5386 43.5013C49.3086 43.5013 49.9526 43.2913 50.4566 42.8713C50.9746 42.4373 51.2266 41.9053 51.2266 41.2473Z" fill="white"/>
<path d="M59.7829 39.9733C59.7969 39.9033 59.7969 39.7773 59.7969 39.6093C59.7969 38.4753 59.4889 37.5653 58.8729 36.8513C58.2569 36.1373 57.3889 35.7733 56.2689 35.7733C55.2469 35.7733 54.3789 36.1513 53.6789 36.9213C52.9789 37.6913 52.6289 38.5873 52.6289 39.6233C52.6289 40.7013 52.9929 41.6253 53.7209 42.3813C54.4489 43.1233 55.3449 43.5013 56.4229 43.5013C57.7669 43.5013 58.9569 42.8013 59.5869 41.5693L58.7749 41.0373C58.3409 41.9333 57.4589 42.5353 56.4089 42.5353C55.6809 42.5353 55.0649 42.2973 54.5609 41.8073C54.0569 41.3173 53.7769 40.7013 53.7349 39.9733H59.7829ZM53.7489 39.0493C53.8469 38.4053 54.1269 37.8593 54.6029 37.4113C55.0789 36.9493 55.6389 36.7253 56.2689 36.7253C57.6689 36.7253 58.5369 37.6493 58.6909 39.0493H53.7489Z" fill="white"/>
<path d="M66.6348 41.2473C66.6348 40.7853 66.4528 40.3653 66.1028 40.0153C65.6968 39.5953 65.0388 39.2873 64.1428 39.0913C62.7568 38.7973 62.3928 38.5313 62.3928 37.9153C62.3928 37.5933 62.5468 37.3273 62.8408 37.0893C63.1348 36.8513 63.4988 36.7393 63.9048 36.7393C64.6748 36.7393 65.2628 37.1593 65.6548 37.9993L66.5508 37.5093C66.0468 36.3473 65.1648 35.7733 63.9048 35.7733C63.2328 35.7733 62.6308 35.9833 62.0988 36.4033C61.5668 36.8233 61.3008 37.3553 61.3008 37.9993C61.3008 38.4333 61.4408 38.7973 61.7068 39.1193C62.1128 39.5813 62.6308 39.8193 63.6528 40.0433C65.0108 40.3653 65.5288 40.6873 65.5288 41.3173C65.5288 42.0593 64.7868 42.5353 63.9328 42.5353C63.0508 42.5353 62.3788 42.0453 61.9168 41.0793L61.0208 41.5693C61.5948 42.8573 62.5748 43.5013 63.9468 43.5013C64.7168 43.5013 65.3608 43.2913 65.8648 42.8713C66.3828 42.4373 66.6348 41.9053 66.6348 41.2473Z" fill="white"/>
</g>
</svg>
