<svg xmlns="http://www.w3.org/2000/svg" width="125" height="44" fill="none"><path fill="#243258" d="M33.083 19.201v4.495h4.582v-4.524h3.219v-4.205h-3.22V.99h-5.596l-10.18 13.6v4.611h11.195Zm0-12.702v8.468H26.76L33.083 6.5Zm10.455 5.829c0 3.045.812 5.858 2.32 8.062 1.537 2.204 4.147 3.596 7.366 3.596 6.525 0 9.773-5.77 9.773-11.774 0-4.147-1.334-7.685-4.35-9.889C57.167 1.193 55.37.641 53.31.641c-2.117 0-3.944.58-5.452 1.711-1.508 1.131-2.61 2.552-3.306 4.263-.667 1.711-1.015 3.625-1.015 5.713Zm5.19-3.248a6.649 6.649 0 0 1 1.654-2.726c.783-.812 1.74-1.218 2.87-1.218 1.132 0 2.089.406 2.872 1.218 2.29 2.291 2.552 6.09 1.653 9.135a6.85 6.85 0 0 1-1.653 2.784 3.918 3.918 0 0 1-2.871 1.19 3.918 3.918 0 0 1-2.871-1.19c-2.291-2.349-2.552-6.235-1.653-9.193Zm22.956 14.616V12.908l8.178 10.788h6.062l-9.252-11.86L85.344.988h-5.858l-7.802 9.89V.988h-4.668v22.707h4.668Zm25.269-2.813v-5.655h5.51v-4.234h-5.51V5.368h-4.321v5.626h-5.655v4.234h5.655v5.655h4.321ZM4.107 43.822c1.134 0 2.044-.308 2.716-.938.672-.63 1.008-1.372 1.008-2.226 0-.798-.266-1.456-.784-1.96-.518-.518-1.456-.98-2.814-1.386-1.344-.406-2.03-.854-2.03-1.68 0-.882.77-1.498 1.834-1.498 1.05 0 1.792.518 2.212 1.54l1.428-.77c-.518-1.358-1.75-2.324-3.598-2.324-1.022 0-1.876.308-2.59.924-.7.602-1.05 1.344-1.05 2.226 0 .84.28 1.512.84 2.002.532.476 1.386.896 2.576 1.274 1.568.49 2.198.952 2.198 1.75 0 .91-.798 1.498-1.918 1.498-1.19 0-2.142-.644-2.604-1.82l-1.456.756c.616 1.68 2.114 2.632 4.032 2.632Zm9.517-6.104V36.22H11.79v-2.31h-1.666v2.31H8.752v1.498h1.372v3.57c0 1.624.952 2.492 2.59 2.492.322 0 .63-.056.896-.154v-1.414a2.373 2.373 0 0 1-.532.056c-.854 0-1.288-.35-1.288-1.246v-3.304h1.834Zm1.666-1.498v4.592c0 1.792.994 3.038 2.8 3.038.952 0 1.708-.392 2.282-1.162v1.008h1.624V36.22H20.33v4.158c0 1.134-.672 1.89-1.722 1.89-1.106 0-1.652-.742-1.652-1.862V36.22H15.29Zm8.425 3.724c0 1.036.35 1.946 1.05 2.716.7.77 1.582 1.148 2.632 1.148.392 0 .84-.098 1.344-.308.518-.21.896-.532 1.162-.966v1.162h1.624V32.3h-1.666v4.984c-.252-.406-.616-.7-1.106-.896-.476-.21-.91-.308-1.316-.308-1.106 0-2.016.392-2.702 1.176-.686.784-1.022 1.68-1.022 2.688Zm3.934-2.366c.658 0 1.19.224 1.61.686.42.462.63 1.022.63 1.68 0 .658-.21 1.218-.63 1.68-.406.448-.952.672-1.61.672-.658 0-1.204-.224-1.624-.672-.406-.462-.616-1.022-.616-1.68 0-.658.21-1.218.616-1.68.42-.462.966-.686 1.624-.686Zm12.988 2.87c.014-.126.028-.294.028-.518 0-1.162-.322-2.086-.966-2.8-.644-.714-1.54-1.064-2.674-1.064-1.078 0-1.974.378-2.688 1.134-.714.756-1.078 1.666-1.078 2.744 0 1.106.378 2.044 1.12 2.786.756.742 1.694 1.106 2.8 1.106 1.344 0 2.562-.644 3.192-1.806l-1.204-.798c-.406.77-1.078 1.162-2.016 1.162a2.282 2.282 0 0 1-1.512-.546c-.434-.378-.658-.84-.672-1.4h5.67Zm-3.612-2.954c1.064 0 1.89.644 1.946 1.694h-3.92c.154-1.022.952-1.694 1.974-1.694Zm12.057 6.202V39.09c0-1.792-.966-3.024-2.8-3.024-.952 0-1.708.392-2.282 1.162V36.22h-1.624v7.476h1.666v-4.158c0-1.134.672-1.89 1.722-1.89 1.106 0 1.652.742 1.652 1.862v4.186h1.666Zm6.228-5.978V36.22h-1.835v-2.31H51.81v2.31h-1.372v1.498h1.372v3.57c0 1.624.952 2.492 2.59 2.492.322 0 .63-.056.896-.154v-1.414a2.373 2.373 0 0 1-.532.056c-.854 0-1.288-.35-1.288-1.246v-3.304h1.834Zm4.171 6.104c.84 0 1.526-.21 2.044-.644.519-.434.785-.994.785-1.68 0-1.162-.897-1.974-2.59-2.352-.966-.21-1.386-.462-1.386-.952 0-.406.531-.728 1.05-.728.713 0 1.231.336 1.568 1.008l1.288-.728c-.519-1.12-1.457-1.68-2.8-1.68-.728 0-1.358.21-1.904.644-.547.434-.813.98-.813 1.652 0 .532.183.98.532 1.358.406.434 1.036.728 1.862.896 1.023.21 1.54.546 1.54.98 0 .504-.545.826-1.175.826-.798 0-1.386-.406-1.792-1.204l-1.302.728c.574 1.246 1.61 1.876 3.093 1.876Zm15.591-9.534v-1.554h-7.014v10.962h7.07v-1.568H69.78v-3.234h4.816V37.34H69.78v-3.052h5.292Zm8.695 9.408V39.09c0-1.792-.966-3.024-2.8-3.024-.952 0-1.708.392-2.282 1.162V36.22h-1.624v7.476h1.666v-4.158c0-1.134.672-1.89 1.722-1.89 1.106 0 1.652.742 1.652 1.862v4.186h1.666Zm6.242-7.504a1.495 1.495 0 0 0-.406-.042c-.91 0-1.596.42-2.058 1.26v-1.19H85.92v7.476h1.666v-3.794c0-1.302.672-2.044 1.946-2.044.182 0 .336.014.476.042v-1.708Zm4.688-.126c-1.092 0-2.03.378-2.8 1.12-.77.742-1.162 1.666-1.162 2.758s.378 2.016 1.148 2.758c.77.742 1.708 1.12 2.8 1.12 1.106 0 2.03-.378 2.786-1.12.77-.756 1.148-1.68 1.148-2.786 0-1.092-.378-2.002-1.148-2.744-.77-.742-1.694-1.106-2.772-1.106Zm-1.638 2.198c.42-.462.966-.686 1.624-.686.658 0 1.204.224 1.61.686.42.462.63 1.022.63 1.68 0 .658-.21 1.218-.616 1.68-.406.462-.952.686-1.61.686-.658 0-1.204-.238-1.624-.7a2.468 2.468 0 0 1-.63-1.694c0-.658.21-1.204.616-1.652Zm7.299 5.432h1.666V32.3h-1.666v11.396Zm3.897 0h1.666V32.3h-1.666v11.396Zm10.77-3.248c.014-.126.028-.294.028-.518 0-1.162-.322-2.086-.966-2.8-.644-.714-1.54-1.064-2.674-1.064-1.078 0-1.974.378-2.688 1.134-.714.756-1.078 1.666-1.078 2.744 0 1.106.378 2.044 1.12 2.786.756.742 1.694 1.106 2.8 1.106 1.344 0 2.562-.644 3.192-1.806l-1.204-.798c-.406.77-1.078 1.162-2.016 1.162a2.282 2.282 0 0 1-1.512-.546c-.434-.378-.658-.84-.672-1.4h5.67Zm-3.612-2.954c1.064 0 1.89.644 1.946 1.694h-3.92c.154-1.022.952-1.694 1.974-1.694Zm4.834 2.45c0 1.036.35 1.946 1.05 2.716.7.77 1.582 1.148 2.632 1.148.392 0 .84-.098 1.344-.308.518-.21.896-.532 1.162-.966v1.162h1.624V32.3h-1.666v4.984c-.252-.406-.616-.7-1.106-.896-.476-.21-.91-.308-1.316-.308-1.106 0-2.016.392-2.702 1.176-.686.784-1.022 1.68-1.022 2.688Zm3.934-2.366c.658 0 1.19.224 1.61.686.42.462.63 1.022.63 1.68 0 .658-.21 1.218-.63 1.68-.406.448-.952.672-1.61.672-.658 0-1.204-.224-1.624-.672-.406-.462-.616-1.022-.616-1.68 0-.658.21-1.218.616-1.68.42-.462.966-.686 1.624-.686Z"/></svg>