<svg xmlns="http://www.w3.org/2000/svg" width="77" height="44" fill="none"><path fill="#fff" d="M.613 23.375H17.23v-4.292H7.428l3.828-3.045c2.175-1.71 3.712-3.132 4.553-4.263.87-1.13 1.305-2.494 1.305-4.118 0-2.088-.725-3.828-2.204-5.22C13.431 1.017 11.488.32 9.052.32c-1.943 0-3.683.464-5.22 1.392-1.508.9-2.523 2.262-3.074 4.031L5.079 7.57c.754-1.885 2.059-2.842 3.944-2.842 1.856 0 3.248 1.334 3.248 2.958 0 .841-.261 1.595-.812 2.291s-1.508 1.624-2.929 2.784L.613 19.257v4.118Zm30.299-4.495v4.495h4.582v-4.524h3.22v-4.205h-3.22V.668h-5.597L19.718 14.27v4.611h11.194Zm0-12.702v8.468H24.59l6.322-8.468ZM57.665 16.85c0-2.523-1.015-4.147-3.538-5.19v-.03c2.06-1.102 3.103-2.697 3.103-4.785 0-1.943-.725-3.538-2.175-4.727C53.605.93 51.72.32 49.4.32c-3.799 0-6.815 1.77-8.09 4.901l4.204 2.001C46.297 5.54 47.515 4.7 49.226 4.7c2.06 0 3.277 1.044 3.277 2.465 0 1.508-1.189 2.552-3.19 2.552h-2.146v4.35h2.407c2.088 0 3.335.957 3.335 2.668 0 1.595-1.334 2.64-3.335 2.64-2.059 0-3.712-.958-4.495-2.61l-4.118 2.116c1.363 3.161 4.524 4.843 8.497 4.843 2.35 0 4.292-.638 5.858-1.943 1.566-1.305 2.35-2.958 2.35-4.93Zm19.231-1.073c0-2.29-.696-4.089-2.088-5.336-1.363-1.276-3.103-1.914-5.19-1.914-1.48 0-2.843.493-4.09 1.508l.725-5.104h9.628V.668H62.512L60.86 12.181l4.408 1.798c.928-.899 1.972-1.334 3.103-1.334 2.35 0 3.8 1.305 3.8 3.248 0 2.088-1.509 3.364-3.626 3.364-2 0-3.422-.812-4.292-2.436L60.25 19.2c1.537 2.958 4.263 4.437 8.178 4.437 2.436 0 4.466-.696 6.061-2.117 1.595-1.42 2.407-3.335 2.407-5.742ZM16.35 43.487c1.246 0 2.31-.322 3.164-.98.868-.658 1.47-1.456 1.792-2.394l-1.036-.49c-.63 1.722-1.932 2.772-3.878 2.772-1.246 0-2.268-.434-3.08-1.288-.812-.854-1.218-1.946-1.218-3.248 0-1.302.42-2.366 1.246-3.206.84-.84 1.848-1.26 3.038-1.26 1.05 0 1.89.266 2.52.798a4.218 4.218 0 0 1 1.358 1.946l1.036-.476c-.294-.924-.868-1.708-1.722-2.366-.854-.658-1.904-.994-3.164-.994-1.526 0-2.828.532-3.906 1.596-1.078 1.05-1.61 2.394-1.61 4.032 0 1.624.518 2.954 1.568 4.004 1.05 1.036 2.352 1.554 3.892 1.554Zm10.037.014c1.092 0 2.016-.378 2.758-1.12.742-.742 1.12-1.666 1.12-2.772 0-1.078-.378-1.974-1.12-2.716-.742-.742-1.652-1.12-2.73-1.12-1.106 0-2.03.378-2.772 1.12-.742.742-1.106 1.666-1.106 2.772 0 1.064.364 1.974 1.106 2.716.742.742 1.666 1.12 2.744 1.12Zm.028-.966c-.798 0-1.47-.28-1.988-.854s-.77-1.274-.77-2.072.252-1.484.77-2.044 1.162-.84 1.96-.84 1.456.294 1.974.868c.518.574.784 1.274.784 2.072s-.266 1.47-.784 2.03c-.518.56-1.162.84-1.946.84Zm5.69-6.635v4.62c0 1.791 1.036 2.995 2.828 2.995 1.134 0 1.988-.504 2.562-1.512v1.372h1.064V35.9H37.48v4.27c0 .672-.21 1.232-.63 1.68-.42.448-.952.672-1.596.672-1.344 0-2.072-.882-2.072-2.268V35.9h-1.078Zm8.929 0v7.475h1.092v-3.654c0-.77.182-1.414.56-1.96.378-.546.966-.826 1.778-.826.098 0 .238.014.42.028v-1.162c-.056-.014-.182-.014-.364-.014-.952 0-1.89.518-2.408 1.596V35.9h-1.078Zm10.193 5.347c0-.462-.182-.882-.532-1.232-.406-.42-1.064-.728-1.96-.924-1.386-.294-1.75-.56-1.75-1.176 0-.322.154-.588.448-.826.294-.238.658-.35 1.064-.35.77 0 1.358.42 1.75 1.26l.896-.49c-.504-1.162-1.386-1.736-2.646-1.736-.672 0-1.274.21-1.806.63-.532.42-.798.952-.798 1.596 0 .434.14.798.406 1.12.406.462.924.7 1.946.924 1.358.322 1.876.644 1.876 1.274 0 .742-.742 1.218-1.596 1.218-.882 0-1.554-.49-2.016-1.456l-.896.49c.574 1.288 1.554 1.932 2.926 1.932.77 0 1.414-.21 1.918-.63.518-.434.77-.966.77-1.624Zm8.556-1.274c.014-.07.014-.196.014-.364 0-1.134-.308-2.044-.924-2.758-.616-.714-1.484-1.078-2.604-1.078-1.022 0-1.89.378-2.59 1.148-.7.77-1.05 1.666-1.05 2.702 0 1.078.364 2.002 1.092 2.758.728.742 1.624 1.12 2.702 1.12 1.344 0 2.534-.7 3.164-1.932l-.812-.532c-.434.896-1.316 1.498-2.366 1.498-.728 0-1.344-.238-1.848-.728a2.696 2.696 0 0 1-.826-1.834h6.048Zm-6.034-.924c.098-.644.378-1.19.854-1.638a2.318 2.318 0 0 1 1.666-.686c1.4 0 2.268.924 2.422 2.324h-4.942Zm12.886 2.198c0-.462-.182-.882-.532-1.232-.406-.42-1.064-.728-1.96-.924-1.386-.294-1.75-.56-1.75-1.176 0-.322.154-.588.448-.826.294-.238.658-.35 1.064-.35.77 0 1.358.42 1.75 1.26l.896-.49c-.504-1.162-1.386-1.736-2.646-1.736-.672 0-1.274.21-1.806.63-.532.42-.798.952-.798 1.596 0 .434.14.798.406 1.12.406.462.924.7 1.946.924 1.358.322 1.876.644 1.876 1.274 0 .742-.742 1.218-1.596 1.218-.882 0-1.554-.49-2.016-1.456l-.896.49c.574 1.288 1.554 1.932 2.926 1.932.77 0 1.414-.21 1.918-.63.518-.434.77-.966.77-1.624Z"/></svg>