<svg width="125" height="44" viewBox="0 0 125 44" fill="none" xmlns="http://www.w3.org/2000/svg">
<g id="40K+ Students Enrolled">
<path d="M33.0828 19.2011V23.6961H37.6648V19.1721H40.8838V14.9671H37.6648V0.989112H32.0678L21.8888 14.5901V19.2011H33.0828ZM33.0828 6.49911V14.9671H26.7608L33.0828 6.49911Z" fill="#243258"/>
<path d="M43.5377 12.3281C43.5377 15.3731 44.3497 18.1861 45.8577 20.3901C47.3947 22.5941 50.0047 23.9861 53.2237 23.9861C59.7487 23.9861 62.9967 18.2151 62.9967 12.2121C62.9967 8.06511 61.6627 4.52711 58.6467 2.32311C57.1677 1.19211 55.3697 0.641113 53.3107 0.641113C51.1937 0.641113 49.3667 1.22111 47.8587 2.35211C46.3507 3.48311 45.2487 4.90411 44.5527 6.61511C43.8857 8.32611 43.5377 10.2401 43.5377 12.3281ZM48.7287 9.08011C49.0477 8.06511 49.5987 7.13711 50.3817 6.35411C51.1647 5.54211 52.1217 5.13611 53.2527 5.13611C54.3837 5.13611 55.3407 5.54211 56.1237 6.35411C58.4147 8.64511 58.6757 12.4441 57.7767 15.4891C57.4577 16.5331 56.9067 17.4611 56.1237 18.2731C55.3407 19.0561 54.3837 19.4621 53.2527 19.4621C52.1217 19.4621 51.1647 19.0561 50.3817 18.2731C48.0907 15.9241 47.8297 12.0381 48.7287 9.08011Z" fill="#243258"/>
<path d="M71.6845 23.6961V12.9081L79.8625 23.6961H85.9235L76.6725 11.8351L85.3435 0.989112H79.4855L71.6845 10.8781V0.989112H67.0155V23.6961H71.6845Z" fill="#243258"/>
<path d="M96.953 20.8831V15.2281H102.463V10.9941H96.953V5.36811H92.632V10.9941H86.977V15.2281H92.632V20.8831H96.953Z" fill="#243258"/>
<path d="M4.10732 43.8221C5.24132 43.8221 6.15132 43.5141 6.82332 42.8841C7.49532 42.2541 7.83132 41.5121 7.83132 40.6581C7.83132 39.8601 7.56532 39.2021 7.04732 38.6981C6.52932 38.1801 5.59132 37.7181 4.23332 37.3121C2.88932 36.9061 2.20332 36.4581 2.20332 35.6321C2.20332 34.7501 2.97332 34.1341 4.03732 34.1341C5.08732 34.1341 5.82932 34.6521 6.24932 35.6741L7.67732 34.9041C7.15932 33.5461 5.92732 32.5801 4.07932 32.5801C3.05732 32.5801 2.20332 32.8881 1.48932 33.5041C0.789317 34.1061 0.439317 34.8481 0.439317 35.7301C0.439317 36.5701 0.719317 37.2421 1.27932 37.7321C1.81132 38.2081 2.66532 38.6281 3.85532 39.0061C5.42332 39.4961 6.05332 39.9581 6.05332 40.7561C6.05332 41.6661 5.25532 42.2541 4.13532 42.2541C2.94532 42.2541 1.99332 41.6101 1.53132 40.4341L0.0753174 41.1901C0.691317 42.8701 2.18932 43.8221 4.10732 43.8221Z" fill="#243258"/>
<path d="M13.6237 37.7181V36.2201H11.7897V33.9101H10.1237V36.2201H8.75171V37.7181H10.1237V41.2881C10.1237 42.9121 11.0757 43.7801 12.7137 43.7801C13.0357 43.7801 13.3437 43.7241 13.6097 43.6261V42.2121C13.4277 42.2541 13.2457 42.2681 13.0777 42.2681C12.2237 42.2681 11.7897 41.9181 11.7897 41.0221V37.7181H13.6237Z" fill="#243258"/>
<path d="M15.2899 36.2201V40.8121C15.2899 42.6041 16.2839 43.8501 18.0899 43.8501C19.0419 43.8501 19.7979 43.4581 20.3719 42.6881V43.6961H21.9959V36.2201H20.3299V40.3781C20.3299 41.5121 19.6579 42.2681 18.6079 42.2681C17.5019 42.2681 16.9559 41.5261 16.9559 40.4061V36.2201H15.2899Z" fill="#243258"/>
<path d="M23.7153 39.9441C23.7153 40.9801 24.0653 41.8901 24.7653 42.6601C25.4653 43.4301 26.3473 43.8081 27.3973 43.8081C27.7893 43.8081 28.2373 43.7101 28.7413 43.5001C29.2593 43.2901 29.6373 42.9681 29.9033 42.5341V43.6961H31.5273V32.3001H29.8613V37.2841C29.6093 36.8781 29.2453 36.5841 28.7553 36.3881C28.2793 36.1781 27.8453 36.0801 27.4393 36.0801C26.3333 36.0801 25.4233 36.4721 24.7373 37.2561C24.0513 38.0401 23.7153 38.9361 23.7153 39.9441ZM27.6493 37.5781C28.3073 37.5781 28.8393 37.8021 29.2593 38.2641C29.6793 38.7261 29.8893 39.2861 29.8893 39.9441C29.8893 40.6021 29.6793 41.1621 29.2593 41.6241C28.8533 42.0721 28.3073 42.2961 27.6493 42.2961C26.9913 42.2961 26.4453 42.0721 26.0253 41.6241C25.6193 41.1621 25.4093 40.6021 25.4093 39.9441C25.4093 39.2861 25.6193 38.7261 26.0253 38.2641C26.4453 37.8021 26.9913 37.5781 27.6493 37.5781Z" fill="#243258"/>
<path d="M40.6366 40.4481C40.6506 40.3221 40.6646 40.1541 40.6646 39.9301C40.6646 38.7681 40.3426 37.8441 39.6986 37.1301C39.0546 36.4161 38.1586 36.0661 37.0246 36.0661C35.9466 36.0661 35.0506 36.4441 34.3366 37.2001C33.6226 37.9561 33.2586 38.8661 33.2586 39.9441C33.2586 41.0501 33.6366 41.9881 34.3786 42.7301C35.1346 43.4721 36.0726 43.8361 37.1786 43.8361C38.5226 43.8361 39.7406 43.1921 40.3706 42.0301L39.1666 41.2321C38.7606 42.0021 38.0886 42.3941 37.1506 42.3941C36.5766 42.3941 36.0726 42.2121 35.6386 41.8481C35.2046 41.4701 34.9806 41.0081 34.9666 40.4481H40.6366ZM37.0246 37.4941C38.0886 37.4941 38.9146 38.1381 38.9706 39.1881H35.0506C35.2046 38.1661 36.0026 37.4941 37.0246 37.4941Z" fill="#243258"/>
<path d="M49.0819 43.6961V39.0901C49.0819 37.2981 48.1159 36.0661 46.2819 36.0661C45.3299 36.0661 44.5739 36.4581 43.9999 37.2281V36.2201H42.3759V43.6961H44.0419V39.5381C44.0419 38.4041 44.7139 37.6481 45.7639 37.6481C46.8699 37.6481 47.4159 38.3901 47.4159 39.5101V43.6961H49.0819Z" fill="#243258"/>
<path d="M55.3093 37.7181V36.2201H53.4753V33.9101H51.8093V36.2201H50.4373V37.7181H51.8093V41.2881C51.8093 42.9121 52.7613 43.7801 54.3993 43.7801C54.7213 43.7801 55.0293 43.7241 55.2953 43.6261V42.2121C55.1133 42.2541 54.9313 42.2681 54.7633 42.2681C53.9093 42.2681 53.4753 41.9181 53.4753 41.0221V37.7181H55.3093Z" fill="#243258"/>
<path d="M59.4815 43.8221C60.3215 43.8221 61.0075 43.6121 61.5255 43.1781C62.0435 42.7441 62.3095 42.1841 62.3095 41.4981C62.3095 40.3361 61.4135 39.5241 59.7195 39.1461C58.7535 38.9361 58.3335 38.6841 58.3335 38.1941C58.3335 37.7881 58.8655 37.4661 59.3835 37.4661C60.0975 37.4661 60.6155 37.8021 60.9515 38.4741L62.2395 37.7461C61.7215 36.6261 60.7835 36.0661 59.4395 36.0661C58.7115 36.0661 58.0815 36.2761 57.5355 36.7101C56.9895 37.1441 56.7235 37.6901 56.7235 38.3621C56.7235 38.8941 56.9055 39.3421 57.2555 39.7201C57.6615 40.1541 58.2915 40.4481 59.1175 40.6161C60.1395 40.8261 60.6575 41.1621 60.6575 41.5961C60.6575 42.1001 60.1115 42.4221 59.4815 42.4221C58.6835 42.4221 58.0955 42.0161 57.6895 41.2181L56.3875 41.9461C56.9615 43.1921 57.9975 43.8221 59.4815 43.8221Z" fill="#243258"/>
<path d="M75.0722 34.2881V32.7341H68.0582V43.6961H75.1282V42.1281H69.7802V38.8941H74.5962V37.3401H69.7802V34.2881H75.0722Z" fill="#243258"/>
<path d="M83.7674 43.6961V39.0901C83.7674 37.2981 82.8014 36.0661 80.9674 36.0661C80.0154 36.0661 79.2594 36.4581 78.6854 37.2281V36.2201H77.0614V43.6961H78.7274V39.5381C78.7274 38.4041 79.3994 37.6481 80.4494 37.6481C81.5554 37.6481 82.1014 38.3901 82.1014 39.5101V43.6961H83.7674Z" fill="#243258"/>
<path d="M90.0088 36.1921C89.9108 36.1641 89.7848 36.1501 89.6028 36.1501C88.6928 36.1501 88.0068 36.5701 87.5448 37.4101V36.2201H85.9208V43.6961H87.5868V39.9021C87.5868 38.6001 88.2588 37.8581 89.5328 37.8581C89.7148 37.8581 89.8688 37.8721 90.0088 37.9001V36.1921Z" fill="#243258"/>
<path d="M94.6968 36.0661C93.6048 36.0661 92.6668 36.4441 91.8968 37.1861C91.1268 37.9281 90.7348 38.8521 90.7348 39.9441C90.7348 41.0361 91.1128 41.9601 91.8828 42.7021C92.6528 43.4441 93.5908 43.8221 94.6828 43.8221C95.7888 43.8221 96.7128 43.4441 97.4688 42.7021C98.2388 41.9461 98.6168 41.0221 98.6168 39.9161C98.6168 38.8241 98.2388 37.9141 97.4688 37.1721C96.6988 36.4301 95.7748 36.0661 94.6968 36.0661ZM93.0588 38.2641C93.4788 37.8021 94.0248 37.5781 94.6828 37.5781C95.3408 37.5781 95.8868 37.8021 96.2928 38.2641C96.7128 38.7261 96.9228 39.2861 96.9228 39.9441C96.9228 40.6021 96.7128 41.1621 96.3068 41.6241C95.9008 42.0861 95.3548 42.3101 94.6968 42.3101C94.0388 42.3101 93.4928 42.0721 93.0728 41.6101C92.6528 41.1341 92.4428 40.5741 92.4428 39.9161C92.4428 39.2581 92.6528 38.7121 93.0588 38.2641Z" fill="#243258"/>
<path d="M100.358 43.6961H102.024V32.3001H100.358V43.6961Z" fill="#243258"/>
<path d="M104.255 43.6961H105.921V32.3001H104.255V43.6961Z" fill="#243258"/>
<path d="M115.025 40.4481C115.039 40.3221 115.053 40.1541 115.053 39.9301C115.053 38.7681 114.731 37.8441 114.087 37.1301C113.443 36.4161 112.547 36.0661 111.413 36.0661C110.335 36.0661 109.439 36.4441 108.725 37.2001C108.011 37.9561 107.647 38.8661 107.647 39.9441C107.647 41.0501 108.025 41.9881 108.767 42.7301C109.523 43.4721 110.461 43.8361 111.567 43.8361C112.911 43.8361 114.129 43.1921 114.759 42.0301L113.555 41.2321C113.149 42.0021 112.477 42.3941 111.539 42.3941C110.965 42.3941 110.461 42.2121 110.027 41.8481C109.593 41.4701 109.369 41.0081 109.355 40.4481H115.025ZM111.413 37.4941C112.477 37.4941 113.303 38.1381 113.359 39.1881H109.439C109.593 38.1661 110.391 37.4941 111.413 37.4941Z" fill="#243258"/>
<path d="M116.247 39.9441C116.247 40.9801 116.597 41.8901 117.297 42.6601C117.997 43.4301 118.879 43.8081 119.929 43.8081C120.321 43.8081 120.769 43.7101 121.273 43.5001C121.791 43.2901 122.169 42.9681 122.435 42.5341V43.6961H124.059V32.3001H122.393V37.2841C122.141 36.8781 121.777 36.5841 121.287 36.3881C120.811 36.1781 120.377 36.0801 119.971 36.0801C118.865 36.0801 117.955 36.4721 117.269 37.2561C116.583 38.0401 116.247 38.9361 116.247 39.9441ZM120.181 37.5781C120.839 37.5781 121.371 37.8021 121.791 38.2641C122.211 38.7261 122.421 39.2861 122.421 39.9441C122.421 40.6021 122.211 41.1621 121.791 41.6241C121.385 42.0721 120.839 42.2961 120.181 42.2961C119.523 42.2961 118.977 42.0721 118.557 41.6241C118.151 41.1621 117.941 40.6021 117.941 39.9441C117.941 39.2861 118.151 38.7261 118.557 38.2641C118.977 37.8021 119.523 37.5781 120.181 37.5781Z" fill="#243258"/>
</g>
</svg>
